<svg xmlns="http://www.w3.org/2000/svg" width="278.089" height="99.741" viewBox="0 0 278.089 99.741"><path d="M442.468,301.336c-1.319-3.958-8.08-2.121-14.309-3.679-4.855-1.215-5.881-7.26-5.678-10.53-3.161,2.96-.117,9.264-.117,9.264s-3.561-2.238-4.586-5.314a19,19,0,0,1-.955-5.827,8.9,8.9,0,0,0-.765,3.44,12.24,12.24,0,0,0,1.628,5.387,11.185,11.185,0,0,1-4.938-1.965,7.014,7.014,0,0,1-3.278-4.336,1.883,1.883,0,0,0-.422,1.481,4.893,4.893,0,0,0,.955,2.156,9.535,9.535,0,0,1-3.044-1.671,3.508,3.508,0,0,1-1.282-2.87,5.7,5.7,0,0,1-3.806-2.05,8.954,8.954,0,0,1-2.1-4.014s-1.576-.19-3.153-2.769a7.4,7.4,0,0,1-1.051-5.015s-3.1-2.436-2.293-4.3,8.892-7.165,10.031-8.5c1.1-1.29,3.536-5.159,4.874-6.831s3.326-3.876,3.326-3.876-2.462-1.277-2.736-3.557,1.186-5.562,1.186-5.562-.011,3.776,2.1,5.381a7.371,7.371,0,0,0,3.465,1.366s-6.506-4.678-2.8-10.137c3.63-5.35,10.867-5.321,15.364-6.086,0,0-5.746,1.76-5.395,3.753.351.7,1.759.7,4.1-.352-3.987,6.1-6.31,2.964-7.858,3.635-1.926.835-.493,2.4,1.525,2.58,3.988.353,7.375-4.836,11.76-7.359,8.92-5.13,13.421-2.823,16.847-1.8,0,0-7.058,2.316-7.68,4.617,10.157-3.591,13.874-.257,16.352-5.644,0,0,4.459,3.25-7.185,10.262,2.642,2.224,10.405-7.695,19.82-2.822,0,0-6.588.621-10.405,5.387-2.887,3.6-7.2,5.419-10.653,5.13,1.3,1.4,4.708,2.823,6.863,2.081,2.723-.937,15.682-3.106,20.884,10.4,0,0-3.7-2.317-6.2-2.007-6.142.768-6.121,3.789-14.682,4.4,0,0,10.314,5.209,18.333-.513,0,0-6.488,8.687-17.259,9.405,2.448,1.9,8.957-.832,11.6,7.085-5.946-4.276-7.668,4.19-14.934,2.138,0,0,6.132,2.452,11.651,0,0,0-3.884,8.176-19.009.409,8.994,4.293,1.226,10.017,14.183,10.554-12.345,12.34-17.751-1.245-24.914.313,0,0,6.953,1.906,6.642,8.758" transform="translate(-385.688 -214.67)" fill="#8b0013"/><path d="M432.3,285.772c-2.58-2.228-.586-5.4-6.139-5.314,0,0,4.861-1.278,6.662-3.364s3.468-4.008,6.6-4.216c0,0-7.133-3.36-9.556-.641,0,0,3.625-6.024,7.458-5.242,0,0-7.338-4.789-13.338,2.96,0,0,.079-7.249,4.15-9.2-2.024-.385-5.584,2.653-5.554,2.452.821-6.105,4.776-7.257,4.776-7.257s-5.4-2.216-7.037,4.923a7.685,7.685,0,0,1-.032-4.257,6.118,6.118,0,0,1,3.44-3.44s-3.249-1.72-8.333,2.863c-5.544,5-8.573,10.215-10.4,11.673,0,0-9.177,7.311-9.119,8.482a1.718,1.718,0,0,0,1.532,1.763c.685,0,3.665-2.037,3.665-2.037s-3.148,3.8-3.009,5.746c.248,3.477,4.1,4.377,4.1,4.377a11.533,11.533,0,0,1,3.74-1.732c2.006-.456,4.156-.849,4.537-.323s.621,1.624.191,1.671a19.151,19.151,0,0,0-4.156-.1,14.561,14.561,0,0,0-4.013,1.291,5.607,5.607,0,0,0,1.338,3.821,5.107,5.107,0,0,0,5.346,1.415c2.868-.718,9.077-3.146,9.077-3.146s1.93-4.906,14.07-3.174" transform="translate(-386.482 -221.292)" fill="#ffb61c"/><path d="M490.456,252.77c-2.334-.372-3.044-.061-7.473,1.557,2.18-2.958,4.111-5.745,9.2-5.266s8.447,1.8,11.916.24c-1.29,1.814-4.3,3.936-6.792,3.625-1.245,1.09,3.272,3.1,2.959,3.114-6.384.311-7.475-2.9-9.811-3.271" transform="translate(-411.668 -220.177)" fill="#8b0013"/><path d="M507.1,283.9c-1.732-1.139-4.191-1.32-7.047.767s-3.154,2.381-5.722,2.689a11.671,11.671,0,0,0,6.027.266c4.453-1.348,3.505-3.1,6.742-3.722" transform="translate(-414.95 -230.025)" fill="#8b0013"/><path d="M480.266,310.833c.869,1.729,2.7,2.887,5.776,2.152s3.428-.88,5.545-.121a9.062,9.062,0,0,0-4.559-2.677c-4.006-.58-3.995,1.386-6.762.646" transform="translate(-410.882 -237.836)" fill="#8b0013"/><path d="M449.425,228.372c-1.495-.763-3.491-.69-5.6,1.245s-2.327,2.2-4.368,2.674a9.455,9.455,0,0,0,4.876-.323c3.465-1.481,2.546-2.8,5.1-3.6" transform="translate(-399.081 -214.079)" fill="#8b0013"/><path d="M393.895,208.449a11.249,11.249,0,0,0-11.237,11.235v77.27a11.249,11.249,0,0,0,11.237,11.236h77.269A11.249,11.249,0,0,0,482.4,296.954v-77.27a11.249,11.249,0,0,0-11.237-11.235Zm-9.3,88.5v-77.27a9.312,9.312,0,0,1,9.3-9.3h77.269a9.312,9.312,0,0,1,9.3,9.3v77.27a9.312,9.312,0,0,1-9.3,9.3H393.895A9.311,9.311,0,0,1,384.594,296.954Z" transform="translate(-382.658 -208.449)" fill="#8b0013"/><path d="M418.84,271.891a.215.215,0,0,0-.269-.106,14.865,14.865,0,0,1-2.515.692,10.255,10.255,0,0,1-2.144.186.213.213,0,0,0-.176.068.21.21,0,0,0-.053.18l.437,2.538a.214.214,0,0,0,.374.1,17.023,17.023,0,0,1,1.685-1.732c.65-.515,2.557-1.639,2.576-1.65A.214.214,0,0,0,418.84,271.891Z" transform="translate(-391.628 -226.759)" fill="#8b0013"/><g transform="translate(114.686 15.71)"><path d="M645.743,284.323H630.891V247.01a7.153,7.153,0,0,0-2.194-5.231,7.255,7.255,0,0,0-5.324-2.194,7.488,7.488,0,0,0-7.425,7.425v37.313H601.005V232.16h14.943v7.425a9.078,9.078,0,0,1,2.324-5.592,6.989,6.989,0,0,1,5.1-1.833h7.518q7.6,0,11.183,5.279a11.045,11.045,0,0,1,4.564-3.981,15.525,15.525,0,0,1,6.621-1.3h7.427a14.422,14.422,0,0,1,10.511,4.384,14.212,14.212,0,0,1,4.431,10.466v37.313H660.687V247.01a7.193,7.193,0,0,0-2.192-5.19,7.1,7.1,0,0,0-5.235-2.236,7.291,7.291,0,0,0-5.279,2.194,7.077,7.077,0,0,0-2.238,5.231Z" transform="translate(-560.481 -231.016)" fill="#8b0013"/><path d="M581.305,247.01h-7.424q-.99-7.423-7.069-7.425-3.943,0-5.906,1.567a5.536,5.536,0,0,0-1.968,4.607q0,3.218,10.824,9.038,8.862,4.742,10.206,7.874a16.95,16.95,0,0,1,1.338,6.712,14.968,14.968,0,0,1-14.942,14.941h-7.426Q544,284.323,544,269.383h7.511q.9,7.514,6.983,7.516,4.025,0,5.993-1.57a5.64,5.64,0,0,0,1.971-4.694q0-3.136-10.828-8.95-8.858-4.74-10.245-7.875A16.364,16.364,0,0,1,544,247.1a15.039,15.039,0,0,1,14.942-14.942h7.426q14.049,0,14.942,14.85" transform="translate(-543.996 -231.016)" fill="#8b0013"/><path d="M710.934,230.55h14.941v7.421c0-2.5.628-4.367,1.88-5.589a7.621,7.621,0,0,1,5.544-1.832h7.519A14.967,14.967,0,0,1,755.67,245.4v22.37a14.978,14.978,0,0,1-14.852,14.944H725.875v14.94H710.934Z" transform="translate(-592.267 -230.55)" fill="#ffb61c"/><path d="M736.295,279.066c5.483-3.58,9.6-12.576,9.946-15.575a29.057,29.057,0,0,0,.208-3.356,18.194,18.194,0,0,0-2.676-9.72,11.107,11.107,0,0,1-1.81-5.608,12.222,12.222,0,0,1,.452-3.116l.318-1.211-1.227.565c-4.709,2.165-11.974,7.606-7.713,19.734l.451,1.287c3.087,8.741,3.484,9.863,1.074,16.35l-.633,1.7Z" transform="translate(-598.504 -233.422)" fill="#8b0013"/><path d="M733.2,281.193l3.212-2.1c3.161-2.061,5.6-5.578,7.081-8.164a24.781,24.781,0,0,0,3.123-7.816c.835-7.138-1.029-10.6-2.525-13.389-1.319-2.446-2.359-4.379-1.314-8.339l.638-2.419-2.455,1.128a15.878,15.878,0,0,0-8.1,7.544c-1.681,3.64-1.659,7.973.063,12.876h0c.157.448.307.876.454,1.288,3.028,8.581,3.416,9.682,1.073,15.991Zm12.354-21.482a27.963,27.963,0,0,1-.2,3.286c-.343,2.977-4.4,11.714-9.685,15.165a19.038,19.038,0,0,0,1.587-6.67c0-2.728-1.065-5.513-3.109-11.322a20.1,20.1,0,0,1-1.247-6.625c0-6.086,3.628-10.117,8.642-12.422a12.665,12.665,0,0,0-.462,3.256c.008,5.358,4.472,6.982,4.478,15.332" transform="translate(-598.25 -232.984)" fill="#fff"/><g transform="translate(0 57.288)"><path d="M546.869,321.1c-2.5,0-2.965-1.469-2.858-3.139h2.017c0,.922.039,1.7,1.148,1.7a.964.964,0,0,0,1.015-1.1c0-1.737-4.06-1.841-4.06-4.715,0-1.508.721-2.71,3.179-2.71,1.963,0,2.938.881,2.805,2.9h-1.963c0-.721-.12-1.454-.936-1.454a.936.936,0,0,0-1.041,1.027c0,1.828,4.059,1.668,4.059,4.7C550.233,320.81,548.4,321.1,546.869,321.1Z" transform="translate(-543.996 -311.142)" fill="#8b0013"/><path d="M553.579,321.009l2.672-9.641h2.657l2.617,9.641H559.4l-.534-2.137h-2.752l-.546,2.137Zm3.888-7.786h-.026l-.923,4.168h1.924Z" transform="translate(-546.767 -311.207)" fill="#8b0013"/><path d="M565.924,321.009v-9.641h2.723l2.565,6.677h.027v-6.677h1.884v9.641h-2.659l-2.631-7.052h-.026v7.052Z" transform="translate(-550.337 -311.207)" fill="#8b0013"/><path d="M582.175,321.009v-9.641h3.244l1.51,6.558h.027l1.6-6.558h3.14v9.641h-1.963V313.57h-.028l-1.856,7.439h-1.922l-1.764-7.439h-.028v7.439Z" transform="translate(-555.036 -311.207)" fill="#8b0013"/><path d="M596.663,321.009l2.67-9.641h2.659l2.618,9.641h-2.125l-.533-2.137H599.2l-.549,2.137Zm3.886-7.786h-.027l-.922,4.168h1.925Z" transform="translate(-559.225 -311.207)" fill="#8b0013"/><path d="M610.948,321.009h-2.016v-9.641h3.725c1.375,0,2.258.88,2.258,2.523a2.081,2.081,0,0,1-1.789,2.364v.026a1.714,1.714,0,0,1,1.749,1.9,13.3,13.3,0,0,0,.226,2.83h-1.975a4.407,4.407,0,0,1-.215-1.869c0-1.149.107-2.123-1.442-2.123h-.521Zm0-5.475h.9c.8,0,1.029-.8,1.029-1.416,0-.922-.387-1.267-1.029-1.267h-.9Z" transform="translate(-562.773 -311.207)" fill="#8b0013"/><path d="M619.114,316.124c0-2.552,0-4.982,3.325-4.982,2.056,0,2.885,1.135,2.806,3.205h-1.978c0-1.282-.226-1.761-.828-1.761-1.136,0-1.282,1.066-1.282,3.539s.146,3.538,1.282,3.538c.935,0,.9-1.2.923-1.963h1.99c0,2.578-1.03,3.406-2.913,3.406C619.114,321.1,619.114,318.646,619.114,316.124Z" transform="translate(-565.717 -311.142)" fill="#8b0013"/><path d="M629.375,316.124c0-2.552,0-4.982,3.324-4.982s3.327,2.43,3.327,4.982c0,2.521,0,4.98-3.327,4.98S629.375,318.646,629.375,316.124Zm4.606,0c0-2.472-.147-3.539-1.282-3.539s-1.282,1.066-1.282,3.539.147,3.538,1.282,3.538S633.981,318.594,633.981,316.124Z" transform="translate(-568.684 -311.142)" fill="#8b0013"/><path d="M644.8,311.368h3.632c1.843,0,2.565,1.12,2.565,2.885,0,1.093-.322,2.829-2.686,2.829h-1.5v3.927H644.8Zm2.017,4.232h1.121c.6,0,1.017-.654,1.017-1.294,0-.788-.214-1.455-1.124-1.455h-1.014Z" transform="translate(-573.144 -311.207)" fill="#8b0013"/><path d="M655.038,321.009v-9.641H660.3v1.483h-3.246v2.376h2.993v1.483h-2.993v2.819h3.353v1.481Z" transform="translate(-576.105 -311.207)" fill="#8b0013"/><path d="M669.678,311.368v1.6h-2.243v8.04h-2.017v-8.04h-2.243v-1.6Z" transform="translate(-578.457 -311.207)" fill="#8b0013"/><path d="M675.411,321.009H673.4v-9.641h3.725c1.376,0,2.257.88,2.257,2.523a2.079,2.079,0,0,1-1.788,2.364v.026a1.714,1.714,0,0,1,1.749,1.9,13.119,13.119,0,0,0,.227,2.83h-1.977a4.407,4.407,0,0,1-.213-1.869c0-1.149.106-2.123-1.443-2.123h-.522Zm0-5.475h.9c.8,0,1.028-.8,1.028-1.416,0-.922-.386-1.267-1.028-1.267h-.9Z" transform="translate(-581.413 -311.207)" fill="#8b0013"/><path d="M683.578,316.124c0-2.552,0-4.982,3.327-4.982s3.325,2.43,3.325,4.982c0,2.521,0,4.98-3.325,4.98S683.578,318.646,683.578,316.124Zm4.608,0c0-2.472-.146-3.539-1.282-3.539s-1.282,1.066-1.282,3.539.146,3.538,1.282,3.538S688.186,318.594,688.186,316.124Z" transform="translate(-584.357 -311.142)" fill="#8b0013"/><path d="M695.022,321.009v-9.641h2.017v8.039h3.016v1.6Z" transform="translate(-587.666 -311.207)" fill="#8b0013"/><path d="M703.156,321.009v-9.641h2.017v9.641Z" transform="translate(-590.018 -311.207)" fill="#8b0013"/></g></g></svg>