<svg xmlns="http://www.w3.org/2000/svg" width="48" height="60" viewBox="0 0 48 60"><g transform="translate(-161 -364)"><path d="M8.106,1.789a1,1,0,0,1,1.789,0l7.382,14.764A1,1,0,0,1,16.382,18H1.618a1,1,0,0,1-.894-1.447Z" transform="translate(194 424) rotate(180)" fill="#274653"/><circle cx="24" cy="24" r="24" transform="translate(161 364)" fill="#fff"/><path d="M24,2a22.006,22.006,0,0,0-8.563,42.272A22.006,22.006,0,0,0,32.563,3.728,21.86,21.86,0,0,0,24,2m0-2A24,24,0,1,1,0,24,24,24,0,0,1,24,0Z" transform="translate(161 364)" fill="#274653"/><path d="M8.565,35.2H11.2V40H5.565l1.52-3.8A1.592,1.592,0,0,1,8.565,35.2ZM13.6,40V35.2h4.06a1.6,1.6,0,0,1,1.25.6L22.27,40Zm12.81.05-5-6.25A4.794,4.794,0,0,0,17.66,32h-9.1A4.793,4.793,0,0,0,4.11,35.015L2.03,40.22A3.2,3.2,0,0,0,0,43.2v5.6a1.6,1.6,0,0,0,1.6,1.6H3.265a4.8,4.8,0,0,0,9.47,0h6.53a4.8,4.8,0,0,0,9.47,0H30.4A1.6,1.6,0,0,0,32,48.8V46.4A6.405,6.405,0,0,0,26.41,40.05ZM26.265,50.4a2.4,2.4,0,0,1-4.53,0,2.358,2.358,0,0,1-.135-.8,2.4,2.4,0,0,1,4.8,0A2.487,2.487,0,0,1,26.265,50.4ZM8,52a2.406,2.406,0,0,1-2.265-1.6,2.358,2.358,0,0,1-.135-.8,2.4,2.4,0,0,1,4.8,0,2.487,2.487,0,0,1-.135.8A2.406,2.406,0,0,1,8,52Z" transform="translate(169 345)" fill="#e76f51"/></g></svg>