<svg xmlns="http://www.w3.org/2000/svg" width="87.818" height="84.514" viewBox="0 0 87.818 84.514"><g transform="translate(-44 -188.454)"><path d="M14.222,32H10.067a3.554,3.554,0,0,0-3.35,2.367L.172,52.844A3.117,3.117,0,0,0,0,53.856a3.037,3.037,0,0,0,3.033,3.033H14.222V53.333a1.778,1.778,0,0,1,3.556,0v3.556H28.967A3.034,3.034,0,0,0,32,53.856a3.117,3.117,0,0,0-.172-1.011L25.283,34.367A3.559,3.559,0,0,0,21.933,32H17.778v3.556a1.778,1.778,0,1,1-3.556,0Zm3.556,10.667v3.556a1.778,1.778,0,1,1-3.556,0V42.667a1.778,1.778,0,1,1,3.556,0Z" transform="translate(44 216.079)" fill="#617575"/><g transform="translate(49.019 214.032)"><path d="M7.32,0A7.32,7.32,0,1,1,0,7.32,7.32,7.32,0,0,1,7.32,0Z" transform="translate(3.66 3.584)" fill="#fff"/><path d="M12.336,28.55c2.934-3.672,9.625-12.571,9.625-17.569A10.981,10.981,0,0,0,0,10.981c0,5,6.691,13.9,9.625,17.569a1.728,1.728,0,0,0,2.711,0ZM7.32,10.981a1.83,1.83,0,1,1,1.83-1.83A1.828,1.828,0,0,1,7.32,10.981Zm9.151-1.83a1.83,1.83,0,1,1-1.83-1.83A1.828,1.828,0,0,1,16.471,9.151ZM7.355,14.006a4.585,4.585,0,0,0,7.252,0,1.142,1.142,0,0,1,1.9,1.27,6.855,6.855,0,0,1-11.049,0,1.142,1.142,0,1,1,1.9-1.27Z" transform="translate(0 0)" fill="#e76f51"/></g><ellipse cx="26.5" cy="15" rx="26.5" ry="15" transform="matrix(0.978, 0.208, -0.208, 0.978, 79.976, 188.454)" fill="#fff"/><path d="M.426-7.206V-8.727H7.594v1.521H4.922V0H3.1V-7.206ZM8.3,0V-8.727h3.443a3.734,3.734,0,0,1,1.69.352,2.483,2.483,0,0,1,1.07.993,2.971,2.971,0,0,1,.369,1.506,2.848,2.848,0,0,1-.375,1.494,2.43,2.43,0,0,1-1.085.957,4.02,4.02,0,0,1-1.715.332H9.389V-4.577H11.4a2.3,2.3,0,0,0,.878-.145,1.055,1.055,0,0,0,.522-.435,1.386,1.386,0,0,0,.173-.72,1.443,1.443,0,0,0-.173-.733,1.1,1.1,0,0,0-.524-.454,2.192,2.192,0,0,0-.884-.156H10.144V0Zm4.713-3.972L15.181,0H13.144L11.021-3.972Zm10.7-.392a5.064,5.064,0,0,1-.539,2.429A3.757,3.757,0,0,1,21.708-.407a4.141,4.141,0,0,1-2.082.526,4.133,4.133,0,0,1-2.088-.528,3.762,3.762,0,0,1-1.462-1.53,5.07,5.07,0,0,1-.537-2.425,5.08,5.08,0,0,1,.537-2.429A3.747,3.747,0,0,1,17.539-8.32a4.146,4.146,0,0,1,2.088-.526,4.141,4.141,0,0,1,2.082.526,3.757,3.757,0,0,1,1.466,1.528A5.064,5.064,0,0,1,23.713-4.364Zm-1.871,0a3.926,3.926,0,0,0-.275-1.56,2.124,2.124,0,0,0-.773-.963,2.075,2.075,0,0,0-1.168-.328,2.075,2.075,0,0,0-1.168.328,2.124,2.124,0,0,0-.773.963,3.926,3.926,0,0,0-.275,1.56,3.926,3.926,0,0,0,.275,1.56,2.124,2.124,0,0,0,.773.963,2.075,2.075,0,0,0,1.168.328,2.075,2.075,0,0,0,1.168-.328,2.124,2.124,0,0,0,.773-.963A3.926,3.926,0,0,0,21.843-4.364Zm3.841-4.364L27.793-2.1h.081l2.114-6.631h2.045L29.024,0H26.647L23.634-8.727ZM32.946,0H30.969l3.013-8.727H36.36L39.368,0H37.391L35.205-6.733h-.068Zm-.124-3.43h4.67v1.44h-4.67ZM38.53-7.206V-8.727H45.7v1.521H43.026V0H41.2V-7.206Zm15.5,2.842A5.064,5.064,0,0,1,53.5-1.935,3.757,3.757,0,0,1,52.03-.407a4.141,4.141,0,0,1-2.082.526A4.133,4.133,0,0,1,47.86-.409,3.762,3.762,0,0,1,46.4-1.939a5.07,5.07,0,0,1-.537-2.425A5.08,5.08,0,0,1,46.4-6.793,3.747,3.747,0,0,1,47.86-8.32a4.146,4.146,0,0,1,2.088-.526,4.141,4.141,0,0,1,2.082.526A3.757,3.757,0,0,1,53.5-6.793,5.064,5.064,0,0,1,54.035-4.364Zm-1.871,0a3.926,3.926,0,0,0-.275-1.56,2.124,2.124,0,0,0-.773-.963,2.075,2.075,0,0,0-1.168-.328,2.075,2.075,0,0,0-1.168.328,2.124,2.124,0,0,0-.773.963,3.926,3.926,0,0,0-.275,1.56,3.926,3.926,0,0,0,.275,1.56,2.124,2.124,0,0,0,.773.963,2.075,2.075,0,0,0,1.168.328,2.075,2.075,0,0,0,1.168-.328,2.124,2.124,0,0,0,.773-.963A3.926,3.926,0,0,0,52.164-4.364Zm4.889-4.364-.166,6.111h-1.56l-.17-6.111ZM56.107.111a.992.992,0,0,1-.724-.3.967.967,0,0,1-.3-.722.955.955,0,0,1,.3-.716,1,1,0,0,1,.724-.3.99.99,0,0,1,.712.3.978.978,0,0,1,.311.716.991.991,0,0,1-.147.513,1.1,1.1,0,0,1-.373.371A.957.957,0,0,1,56.107.111Z" transform="matrix(0.966, -0.259, 0.259, 0.966, 76.11, 220.3)" fill="#264653"/></g></svg>